# This file uses centimeters as units for non-parametric coordinates.

mtllib pc_mouse.mtl
g default
v 6.436950 0.956545 7.215350
v 6.074476 0.791762 7.215350
v 5.924200 0.545146 7.215350
v 5.852081 0.165426 7.215350
v 5.896025 0.165426 7.605628
v 6.076681 0.165426 7.931884
v 6.384052 0.165426 8.137262
v 6.746716 0.165426 8.209382
v 6.746716 0.518777 8.137262
v 6.746716 0.791762 7.931884
v 6.746716 0.956545 7.577919
v 6.799614 1.014409 7.215350
v 7.675028 0.518777 7.215350
v 7.556632 0.778643 6.938262
v 7.162278 0.956545 7.215350
v 7.109380 0.165426 8.137262
v 7.416751 0.165426 7.931884
v 7.644608 0.165426 7.609834
v 7.747147 0.165426 7.294957
v 6.314645 0.230586 4.843356
v 5.906519 0.230586 5.033100
v 5.862505 0.165426 5.942555
v 5.852808 0.165426 6.627437
v 5.924927 0.545146 6.627437
v 6.130306 0.804222 6.627437
v 6.437677 0.956545 6.627437
v 6.800341 1.014409 6.627437
v 6.970634 0.965878 6.283990
v 6.624904 0.873473 5.863848
v 6.624904 0.634059 5.414016
v 6.796188 0.230586 4.776727
v 7.729871 0.165426 5.942555
v 7.685857 0.230586 5.033100
v 7.277731 0.230586 4.843356
v 7.163005 0.956545 6.627437
v 7.508063 0.791762 6.627437
v 7.675755 0.518777 6.627437
v 7.747874 0.165426 6.627437
v 5.874678 -0.006566 7.215350
v 6.746716 -0.006566 8.150415
v 6.384052 -0.006566 8.078296
v 6.076681 -0.006566 7.872917
v 5.918622 -0.006566 7.546662
v 7.714623 -0.006566 7.235991
v 7.644608 -0.006566 7.550867
v 7.416751 -0.006566 7.872917
v 7.109380 -0.006566 8.078296
v 5.875405 -0.006566 6.627437
v 5.885102 -0.006566 5.942555
v 5.973823 -0.006566 5.188433
v 6.314645 -0.006566 4.973986
v 6.796188 -0.006566 4.837755
v 7.715350 -0.006566 6.627437
v 7.277731 -0.006566 4.973986
v 7.618553 -0.006566 5.188433
v 7.697347 -0.006566 5.942555
v 6.320547 0.832345 7.542375
v 6.048381 0.723819 7.427767
v 5.920016 0.516627 7.602215
v 6.106655 0.436015 7.901910
v 6.419597 0.484137 8.088550
v 6.468973 0.767712 7.901910
v 6.199809 0.692972 7.808756
v 7.595894 0.484137 7.574289
v 7.386777 0.767712 7.492998
v 7.073835 0.917460 7.542375
v 7.024459 0.767712 7.901910
v 7.073835 0.484137 8.088550
v 7.386777 0.436015 7.901910
v 7.293624 0.692972 7.808756
v 6.361841 0.605959 5.330870
v 5.946319 0.567443 5.503301
v 5.914461 0.484137 6.009698
v 6.097836 0.808215 6.260011
v 6.447295 0.955477 6.152661
v 6.435963 0.868695 5.865651
v 6.044960 0.744460 5.887831
v 7.677915 0.484137 6.009698
v 7.646057 0.528180 5.463649
v 6.881538 0.634059 5.414016
v 6.881537 0.873473 5.863849
v 7.517600 0.772151 6.196552
v 6.624904 0.831790 5.559305
v 6.624904 0.753572 5.464286
v 6.881538 0.831790 5.559306
v 6.881538 0.753572 5.464287
v 6.624904 0.872220 5.696696
v 6.881538 0.872220 5.696697
vt 0.620253 0.149400
vt 0.680967 0.149400
vt 0.680967 0.243404
vt 0.620253 0.243404
vt 0.620253 0.086997
vt 0.676408 0.087543
vt 0.720400 0.149400
vt 0.722392 0.243404
vt 0.620253 0.352912
vt 0.671212 0.342176
vt 0.592752 0.243404
vt 0.592752 0.149400
vt 0.592752 0.096425
vt 0.620253 0.034831
vt 0.663518 0.039623
vt 0.709536 0.115436
vt 0.723031 0.302153
vt 0.592752 0.352912
vt 0.684533 0.423146
vt 0.630671 0.498328
vt 0.592752 0.044259
vt 0.620253 0.001992
vt 0.671212 0.009781
vt 0.704604 0.054518
vt 0.712837 0.361662
vt 0.592752 0.473492
vt 0.592752 0.011420
vt 0.833800 0.806295
vt 0.792250 0.850600
vt 0.792250 0.756596
vt 0.835898 0.756596
vt 0.786711 0.907992
vt 0.832053 0.894994
vt 0.735751 0.863329
vt 0.735751 0.756596
vt 0.832762 0.687700
vt 0.786711 0.657824
vt 0.735751 0.913675
vt 0.779016 0.960377
vt 0.820102 0.945482
vt 0.708250 0.853900
vt 0.708250 0.756596
vt 0.735751 0.647088
vt 0.793753 0.570514
vt 0.708250 0.904247
vt 0.735751 0.965169
vt 0.708250 0.647088
vt 0.746170 0.501672
vt 0.708250 0.955741
vt 0.786711 0.990219
vt 0.735751 0.998008
vt 0.708250 0.526509
vt 0.708250 0.988580
vt 0.570916 0.535009
vt 0.570715 0.561736
vt 0.564251 0.583704
vt 0.551744 0.598897
vt 0.532635 0.606934
vt 0.527496 0.606934
vt 0.489215 0.535009
vt 0.508325 0.543047
vt 0.520831 0.558240
vt 0.527296 0.580208
vt 0.028524 0.149400
vt 0.086481 0.149400
vt 0.086597 0.243404
vt 0.037451 0.243404
vt 0.067869 0.097111
vt 0.024351 0.115436
vt 0.144469 0.149400
vt 0.144585 0.243404
vt 0.032259 0.302153
vt 0.088135 0.319318
vt 0.136011 0.091428
vt 0.091601 0.039624
vt 0.048564 0.054518
vt 0.202456 0.149400
vt 0.202573 0.243404
vt 0.171814 0.298319
vt 0.086323 0.365209
vt 0.023804 0.361662
vt 0.188315 0.097111
vt 0.136011 0.034831
vt 0.033669 0.039624
vt 0.083706 0.009781
vt 0.265511 0.193705
vt 0.257745 0.243404
vt 0.116534 0.365497
vt 0.074472 0.450717
vt 0.008032 0.423146
vt 0.180420 0.039624
vt 0.238353 0.105006
vt 0.136011 0.001992
vt 0.259270 0.312300
vt 0.157568 0.365497
vt 0.116534 0.437422
vt 0.066925 0.528667
vt 0.001668 0.498329
vt 0.188315 0.009781
vt 0.223458 0.054518
vt 0.116534 0.392224
vt 0.157568 0.392223
vt 0.143921 0.539321
vt 0.238353 0.039624
vt 0.279810 0.429486
vt 0.116534 0.414191
vt 0.157568 0.414191
vt 0.220917 0.528667
vt 0.157568 0.437422
vt 0.116534 0.429384
vt 0.157568 0.429384
vt 0.286173 0.498329
vt 0.586707 0.288151
vt 0.586591 0.385455
vt 0.575396 0.435802
vt 0.538963 0.487296
vt 0.489816 0.520135
vt 0.431828 0.531666
vt 0.373841 0.520135
vt 0.324694 0.487296
vt 0.299421 0.435129
vt 0.292395 0.382155
vt 0.292511 0.288151
vt 0.294062 0.178643
vt 0.308247 0.058063
vt 0.362743 0.023774
vt 0.439739 0.001992
vt 0.516734 0.023774
vt 0.571230 0.058063
vt 0.583828 0.178643
vt 0.297486 0.033226
vt 0.362743 0.002888
vt 0.516734 0.002888
vt 0.581991 0.033226
vt 0.603555 0.592997
vt 0.603555 0.650985
vt 0.576054 0.650985
vt 0.576054 0.592997
vt 0.660054 0.592997
vt 0.654515 0.645301
vt 0.603555 0.535009
vt 0.576054 0.535009
vt 0.654515 0.540692
vt 0.665192 0.655663
vt 0.665192 0.578667
vt 0.703112 0.578667
vt 0.703112 0.655663
vt 0.665192 0.501672
vt 0.703112 0.501672
vt 0.484077 0.576043
vt 0.464967 0.576043
vt 0.464967 0.535009
vt 0.484077 0.535009
vn -0.996972 0.072433 0.028307
vn -0.940656 0.339275 0.007684
vn -0.932625 0.360731 -0.009187
vn -0.996735 0.080542 -0.005702
vn -0.622793 0.781708 0.032576
vn -0.630756 0.775945 -0.007560
vn -0.293638 0.953346 0.070063
vn -0.266129 0.963760 -0.018481
vn -0.015776 0.997481 0.069159
vn -0.012277 0.999502 -0.029072
vn 0.000000 0.004886 0.999988
vn -0.367318 0.003728 0.930088
vn -0.378091 -0.300240 0.875730
vn 0.000000 -0.324315 0.945949
vn -0.720039 -0.005840 0.693910
vn -0.745526 -0.245748 0.619516
vn -0.958174 0.018619 0.285578
vn -0.948259 -0.178257 0.262733
vn -0.989406 -0.137901 0.045380
vn 0.320950 0.942651 0.091647
vn 0.303402 0.951960 -0.041476
vn 0.671216 0.739895 0.044986
vn 0.625171 0.779235 -0.044196
vn 0.913803 0.386781 0.123954
vn 0.948484 0.316431 -0.015816
vn 0.990368 0.082595 0.111128
vn 0.997893 0.064162 -0.009626
vn 0.895223 0.059568 0.441620
vn 0.894516 -0.188594 0.405307
vn 0.980278 -0.185366 0.068517
vn 0.694662 0.019149 0.719081
vn 0.700339 -0.231499 0.675228
vn 0.367318 0.003728 0.930088
vn 0.378091 -0.300240 0.875730
vn -0.998898 0.028190 -0.037517
vn -0.978278 -0.199174 -0.057464
vn -0.991447 -0.130261 -0.008124
vn -0.732112 0.364822 -0.575254
vn -0.867812 -0.366899 -0.335094
vn -0.236267 0.505447 -0.829880
vn -0.312673 -0.452000 -0.835423
vn 0.018025 0.544353 -0.838663
vn 0.000000 -0.374651 -0.927166
vn 0.221011 0.615141 -0.756807
vn 0.312673 -0.452000 -0.835423
vn 0.596249 0.545388 -0.589101
vn 0.863866 -0.381032 -0.329469
vn 0.999005 0.015286 -0.041907
vn 0.970577 -0.233456 -0.058984
vn 0.982488 -0.185883 -0.012851
vn 0.000000 -1.000000 -0.000000
vn 0.000000 -1.000000 -0.000000
vn 0.000000 -1.000000 -0.000000
vn 0.000000 -1.000000 -0.000000
vn 0.000000 -1.000000 -0.000000
vn 0.000000 -1.000000 -0.000000
vn 0.000000 -1.000000 -0.000000
vn 0.000000 -1.000000 -0.000000
vn 0.000000 -1.000000 -0.000000
vn 0.000000 -1.000000 -0.000000
vn 0.000000 -1.000000 -0.000000
vn 0.000000 -1.000000 -0.000000
vn 0.000000 -1.000000 -0.000000
vn 0.000000 -1.000000 -0.000000
vn 0.000000 -1.000000 -0.000000
vn 0.000000 -1.000000 -0.000000
vn 0.000000 -1.000000 -0.000000
vn 0.000000 -1.000000 -0.000000
vn -0.065322 0.956583 0.284047
vn -0.325212 0.910609 0.255006
vn -0.641997 0.734870 0.218646
vn -0.899235 0.321910 0.296226
vn -0.680100 0.311789 0.663514
vn -0.333990 0.353142 0.873923
vn 0.000000 0.386136 0.922442
vn -0.031000 0.798630 0.601024
vn -0.293675 0.773969 0.561005
vn -0.530921 0.685344 0.498425
vn 0.834559 0.406413 0.371941
vn 0.608623 0.740997 0.283728
vn 0.298176 0.913764 0.275910
vn 0.281304 0.749555 0.599195
vn 0.333990 0.353142 0.873923
vn 0.667620 0.332802 0.665977
vn 0.548440 0.654263 0.520725
vn 0.015453 0.846451 -0.532243
vn -0.157221 0.840377 -0.518699
vn -0.724367 0.622152 -0.297018
vn -0.959598 0.281285 -0.007069
vn -0.648302 0.760804 -0.029678
vn -0.200052 0.971346 -0.128323
vn 0.163446 0.975403 -0.147897
vn 0.020417 0.943506 -0.330726
vn -0.171760 0.929237 -0.327135
vn -0.569707 0.797946 -0.196764
vn 0.957849 0.286367 -0.022803
vn 0.603005 0.721581 -0.340156
vn 0.114134 0.850606 -0.513268
vn 0.206379 0.926339 -0.315124
vn 0.553191 0.821231 -0.139856
vn 0.000002 0.387722 -0.921777
vn 0.000002 0.592122 -0.805848
vn 0.000002 0.592123 -0.805848
vn 0.000002 0.387722 -0.921777
vn 0.000001 0.890651 -0.454688
vn 0.000001 0.890651 -0.454687
vn 0.000001 0.990763 -0.135606
vn 0.000001 0.990763 -0.135606
vn 0.000000 0.999972 -0.007497
vn 0.000000 0.999972 -0.007497
vn -1.000000 0.000000 0.000000
vn -1.000000 0.000000 0.000000
vn -1.000000 0.000000 0.000000
vn -1.000000 0.000000 0.000000
vn -1.000000 0.000000 0.000000
vn 1.000000 -0.000002 0.000002
vn 1.000000 -0.000002 0.000002
vn 1.000000 -0.000002 0.000002
vn 1.000000 -0.000002 0.000002
vn 1.000000 -0.000002 0.000002
s 1
g pCube5
usemtl initialShadingGroup
f 4/1/1 3/2/2 24/3/3 23/4/4
f 3/2/2 2/7/5 25/8/6 24/3/3
f 2/64/5 1/65/7 26/66/8 25/67/6
f 1/65/7 12/70/9 27/71/10 26/66/8
f 8/135/11 7/136/12 41/137/13 40/138/14
f 7/22/12 6/14/15 42/21/16 41/27/13
f 6/14/15 5/5/17 43/13/18 42/21/16
f 5/5/17 4/1/1 39/12/19 43/13/18
f 12/70/9 15/77/20 35/78/21 27/71/10
f 15/77/20 14/86/22 36/87/23 35/78/21
f 14/28/22 13/29/24 37/30/25 36/31/23
f 13/29/24 19/34/26 38/35/27 37/30/25
f 19/34/26 18/38/28 45/45/29 44/41/30
f 18/38/28 17/46/31 46/49/32 45/45/29
f 17/46/31 16/51/33 47/53/34 46/49/32
f 16/141/33 8/135/11 40/138/14 47/142/34
f 23/4/4 22/9/35 49/18/36 48/11/37
f 22/9/35 21/20/38 50/26/39 49/18/36
f 21/131/38 20/132/40 51/126/41 50/125/39
f 20/144/40 31/145/42 52/146/43 51/147/41
f 31/145/42 34/148/44 54/149/45 52/146/43
f 34/133/44 33/134/46 55/129/47 54/128/45
f 33/48/46 32/43/48 56/47/49 55/52/47
f 32/43/48 38/35/27 53/42/50 56/47/49
f 19/34/26 44/41/30 53/42/50 38/35/27
f 23/4/4 48/11/37 39/12/19 4/1/1
s off
f 53/113/51 44/114/52 45/115/53 46/116/54 47/117/55 40/118/56 41/119/57 42/120/58 43/121/59 39/122/60 48/123/61 49/124/62 50/125/63 51/126/64 52/127/65 54/128/66 55/129/67 56/130/68
s 1
f 11/74/69 12/70/9 1/65/7 57/68/70
f 57/68/70 1/65/7 2/64/5 58/69/71
f 58/16/71 2/7/5 3/2/2 59/6/72
f 3/2/2 4/1/1 5/5/17 59/6/72
f 59/6/72 5/5/17 6/14/15 60/15/73
f 60/15/73 6/14/15 7/22/12 61/23/74
f 7/136/12 8/135/11 9/139/75 61/140/74
f 61/85/74 9/93/75 10/83/76 62/75/77
f 62/75/77 10/83/76 11/74/69 57/68/70
f 62/75/77 57/68/70 58/69/71 63/76/78
f 58/16/71 59/6/72 60/15/73 63/24/78
f 60/84/73 61/85/74 62/75/77 63/76/78
f 18/38/28 19/34/26 13/29/24 64/32/79
f 64/32/79 13/29/24 14/28/22 65/33/80
f 65/92/80 14/86/22 15/77/20 66/82/81
f 15/77/20 12/70/9 11/74/69 66/82/81
f 66/82/81 11/74/69 10/83/76 67/91/82
f 67/91/82 10/83/76 9/93/75 68/99/83
f 9/139/75 8/135/11 16/141/33 68/143/83
f 68/50/83 16/51/33 17/46/31 69/39/84
f 69/39/84 17/46/31 18/38/28 64/32/79
f 69/39/84 64/32/79 65/33/80 70/40/85
f 65/92/80 66/82/81 67/91/82 70/100/85
f 67/91/82 68/99/83 69/104/84 70/100/85
f 30/96/86 31/103/42 20/97/40 71/89/87
f 71/89/87 20/97/40 21/98/38 72/90/88
f 72/19/88 21/20/38 22/9/35 73/10/89
f 22/9/35 23/4/4 24/3/3 73/10/89
f 73/10/89 24/3/3 25/8/6 74/17/90
f 74/72/90 25/67/6 26/66/8 75/73/91
f 26/66/8 27/71/10 28/79/92 75/73/91
f 75/73/91 28/79/92 29/88/93 76/80/94
f 76/80/94 29/88/93 30/96/86 71/89/87
f 76/80/94 71/89/87 72/90/88 77/81/95
f 72/19/88 73/10/89 74/17/90 77/25/95
f 74/72/90 75/73/91 76/80/94 77/81/95
f 37/30/25 38/35/27 32/43/48 78/37/96
f 78/37/96 32/43/48 33/48/46 79/44/97
f 79/105/97 33/112/46 34/108/44 80/109/98
f 34/108/44 31/103/42 30/96/86 80/109/98
f 81/95/99 29/88/93 28/79/92
f 28/79/92 27/71/10 35/78/21
f 28/79/92 35/78/21 36/87/23 82/94/100
f 82/36/100 36/31/23 37/30/25 78/37/96
f 82/36/100 78/37/96 79/44/97
f 79/105/97 81/95/99 82/94/100
f 81/95/99 28/79/92 82/94/100
f 79/105/97 80/109/98 81/95/99
s 3
f 30/150/101 84/151/102 86/152/103 80/153/104
f 84/110/102 83/106/105 85/107/106 86/111/103
f 83/106/105 87/101/107 88/102/108 85/107/106
f 87/101/107 29/88/109 81/95/110 88/102/108
s off
f 29/54/111 87/55/112 83/56/113 84/57/114 30/58/115
f 81/59/116 80/60/117 86/61/118 85/62/119 88/63/120
