# This file uses centimeters as units for non-parametric coordinates.

mtllib pc_pc_hq.mtl
g default
v -7.810581 12.778929 18.505093
v -7.738342 12.778929 18.577332
v -7.738342 12.851168 18.505093
v 7.738342 12.851168 18.505093
v 7.738342 12.778929 18.577332
v 7.810581 12.778929 18.505093
v -7.810581 12.778929 11.424950
v -7.738342 12.851168 11.424950
v -7.738342 12.778929 11.352711
v 7.738342 12.778929 11.352711
v 7.738342 12.851168 11.424950
v 7.810581 12.778929 11.424950
v -7.810581 -0.058046 18.505093
v -7.738342 -0.058046 18.577332
v 7.810581 -0.058046 18.505093
v 7.738342 -0.058046 18.577332
v -7.810581 -0.058046 11.424950
v -7.738342 -0.058046 11.352711
v 7.810581 -0.058046 11.424950
v 7.738342 -0.058046 11.352711
vt 0.791393 0.908321
vt 0.789306 0.906234
vt 0.789306 0.459149
vt 0.791393 0.457063
vt 0.995921 0.457063
vt 0.998008 0.459149
vt 0.998008 0.906234
vt 0.995921 0.908321
vt 0.384320 0.453071
vt 0.588848 0.453071
vt 0.372822 0.453071
vt 0.001992 0.453071
vt 0.001992 0.450984
vt 0.372822 0.450984
vt 0.374908 0.003900
vt 0.384320 0.001813
vt 0.372822 0.003900
vt 0.001992 0.001813
vt 0.600653 0.453071
vt 0.971483 0.453071
vt 0.588848 0.450984
vt 0.588848 0.003900
vt 0.590935 0.003900
vt 0.600653 0.001813
vt 0.971483 0.001813
vt 0.971483 0.003900
vt 0.001992 0.003900
vt 0.384320 0.450984
vt 0.384320 0.003900
vt 0.600653 0.450984
vt 0.600653 0.003900
vt 0.971483 0.450984
vt 0.576555 0.827892
vt 0.576555 0.457063
vt 0.781084 0.457063
vt 0.781084 0.827892
vt 0.361718 0.827892
vt 0.361718 0.457063
vt 0.566247 0.457063
vt 0.566247 0.827892
vt 0.374908 0.450984
vt 0.372822 0.001813
vt 0.590935 0.450984
vt 0.588848 0.001813
vn 0.000000 -1.000000 -0.000000
vn 0.000000 -1.000000 -0.000000
vn 0.000000 -1.000000 -0.000000
vn 0.000000 -1.000000 -0.000000
vn 0.000000 -1.000000 -0.000000
vn 0.000000 -1.000000 -0.000000
vn 0.000000 -1.000000 -0.000000
vn 0.000000 -1.000000 -0.000000
vn -0.999934 0.005558 0.010062
vn -0.004614 0.999939 0.010068
vn -0.004614 0.999939 -0.010068
vn -0.999934 0.005558 -0.010062
vn -0.004629 0.005579 0.999974
vn -0.999949 0.000000 0.010099
vn -0.004646 0.000000 0.999989
vn 0.004629 0.005579 0.999974
vn 0.004614 0.999939 0.010068
vn 0.999934 0.005558 0.010062
vn 0.999934 0.005558 -0.010062
vn 0.004614 0.999939 -0.010068
vn 0.004646 0.000000 0.999989
vn 0.999949 0.000000 0.010099
vn -0.004629 0.005579 -0.999974
vn -0.004646 0.000000 -0.999989
vn -0.999949 0.000000 -0.010099
vn 0.004629 0.005579 -0.999974
vn 0.999949 0.000000 -0.010099
vn 0.004646 0.000000 -0.999989
s off
g pCube119
usemtl initialShadingGroup
f 17/1/1 18/2/2 20/3/3 19/4/4 15/5/5 16/6/6 14/7/7 13/8/8
s 1
f 1/9/9 3/28/10 8/21/11 7/10/12
f 2/14/13 1/11/9 13/12/14 14/13/15
f 3/41/10 2/14/13 5/17/16 4/15/17
f 4/29/17 6/16/18 12/44/19 11/22/20
f 6/42/18 5/17/16 16/27/21 15/18/22
f 7/19/12 9/30/23 18/32/24 17/20/25
f 9/43/23 8/21/11 11/22/20 10/23/26
f 10/31/26 12/24/19 19/25/27 20/26/28
f 2/14/13 14/13/15 16/27/21 5/17/16
f 3/28/10 4/29/17 11/22/20 8/21/11
f 9/30/23 10/31/26 20/26/28 18/32/24
f 6/33/18 15/34/22 19/35/27 12/36/19
f 7/37/12 17/38/25 13/39/14 1/40/9
f 1/11/9 2/14/13 3/41/10
f 4/15/17 5/17/16 6/42/18
f 7/10/12 8/21/11 9/43/23
f 10/23/26 11/22/20 12/44/19
