# This file uses centimeters as units for non-parametric coordinates.

mtllib pc_screen.mtl
g default
v -8.707050 2.487664 1.239118
v 8.733173 2.487664 1.239118
v -8.707048 12.883619 0.462852
v 8.733171 12.883619 0.462852
v -7.805297 4.507008 0.191856
v -8.269943 3.345364 0.316480
v -8.654714 2.740800 0.542621
v -8.707050 2.500105 0.920357
v 7.815591 4.507008 0.191856
v 8.280236 3.345364 0.316480
v 8.665008 2.740800 0.542621
v 8.733173 2.500105 0.920357
v -8.707048 12.829811 0.101706
v -8.707048 12.829811 0.101708
v -8.707048 12.829811 0.101710
v -8.707049 12.829811 0.101705
v 8.733171 12.829811 0.101708
v 8.733171 12.829811 0.101706
v 8.733171 12.829811 0.101705
v 8.733171 12.829811 0.101710
v -1.282382 4.497958 0.198499
v -1.282385 3.336870 0.305475
v 1.286976 4.497958 0.198499
v 1.286977 3.336870 0.305475
v -8.335890 2.923548 1.206843
v 8.362013 2.923548 1.206843
v 8.362010 12.528015 0.489182
v -8.335887 12.528015 0.489182
v -8.335890 2.913051 1.065077
v 8.362013 2.913051 1.065077
v 8.362010 12.517519 0.347416
v -8.335887 12.517519 0.347416
v -3.262906 -0.002074 0.522339
v -0.522339 -0.002074 3.262906
v -1.487093 -0.002074 2.970277
v -2.346694 -0.002074 2.346694
v -2.970277 -0.002074 1.487093
v -3.161700 0.356284 0.506138
v -2.878147 0.356284 1.440967
v -2.273906 0.356284 2.273906
v -1.440967 0.356284 2.878147
v -0.506138 0.356284 3.161700
v 3.262906 -0.002074 0.522339
v 2.970277 -0.002074 1.487093
v 2.346694 -0.002074 2.346694
v 1.487093 -0.002074 2.970277
v 0.522339 -0.002074 3.262906
v 3.161700 0.356284 0.506138
v 0.506138 0.356284 3.161700
v 1.440967 0.356284 2.878147
v 2.273906 0.356284 2.273906
v 2.878147 0.356284 1.440967
v -1.440967 0.356284 -2.878147
v -2.273906 0.356284 -2.273906
v -2.878147 0.356284 -1.440967
v -3.161700 0.356284 -0.506138
v -3.262906 -0.002074 -0.522339
v -2.970277 -0.002074 -1.487093
v -2.346694 -0.002074 -2.346694
v -1.487093 -0.002074 -2.970277
v -0.522339 -0.002074 -3.262906
v 2.878147 0.356284 -1.440967
v 2.273906 0.356284 -2.273906
v 1.440967 0.356284 -2.878147
v 3.161700 0.356284 -0.506138
v 3.262906 -0.002074 -0.522339
v 0.522339 -0.002074 -3.262906
v 1.487093 -0.002074 -2.970277
v 2.346694 -0.002074 -2.346694
v 2.970277 -0.002074 -1.487093
v 0.401794 3.306945 -0.116708
v -0.402395 3.306945 -0.116708
v 0.401794 4.467478 -0.206035
v -0.402395 4.467478 -0.206035
v 0.506138 0.940824 -2.904464
v 0.617977 0.452146 -3.154344
v 0.890044 0.356284 -3.045253
v 0.178453 0.637004 -3.161700
v 0.506138 0.891773 -1.705513
v 0.393144 0.860202 -1.439273
v 0.107505 0.806312 -1.329902
v 0.221611 0.501922 -1.280729
v 0.506138 0.356284 -1.002297
v 0.493468 0.506679 -1.416976
v -0.506138 0.940824 -2.904464
v -0.178453 0.637004 -3.161700
v -0.617977 0.452146 -3.154344
v -0.890044 0.356284 -3.045253
v -0.107505 0.806312 -1.329902
v -0.393144 0.860202 -1.439273
v -0.506138 0.891773 -1.705513
v -0.451520 0.487699 -1.428976
v -0.506138 0.356284 -1.009588
v -0.221393 0.501817 -1.282783
v 0.311436 3.269834 -0.535673
v -0.000300 3.199452 -0.515960
v -0.312037 3.269834 -0.535673
v 0.407268 4.297878 -0.777748
v 0.401794 4.455667 -0.432655
v -0.402395 4.455667 -0.432655
v -0.407869 4.297878 -0.777748
v 0.536948 3.318916 0.052165
v -0.535471 3.318916 0.052165
v -0.535470 4.479670 -0.044221
v 0.536947 4.479670 -0.044221
vt 0.595583 0.512998
vt 0.606563 0.519994
vt 0.619379 0.813260
vt 0.619379 0.813260
vt 0.586317 0.512636
vt 0.608882 0.814824
vt 0.571372 0.512998
vt 0.580638 0.512636
vt 0.558074 0.814824
vt 0.547576 0.813260
vt 0.560392 0.519994
vt 0.547576 0.813260
vt 0.541896 0.512941
vt 0.521036 0.792122
vt 0.516915 0.791817
vt 0.537776 0.512636
vt 0.507115 0.792122
vt 0.486254 0.512941
vt 0.490375 0.512636
vt 0.511235 0.791817
vt 0.095931 0.613688
vt 0.085514 0.614159
vt 0.085514 0.583793
vt 0.095931 0.584263
vt 0.085514 0.642202
vt 0.095931 0.640862
vt 0.095931 0.557090
vt 0.085514 0.555749
vt 0.085514 0.667189
vt 0.095931 0.665073
vt 0.095931 0.532878
vt 0.085514 0.530763
vt 0.085514 0.685315
vt 0.095931 0.682637
vt 0.095931 0.515314
vt 0.085514 0.512636
vt 0.079835 0.613688
vt 0.069418 0.614159
vt 0.069418 0.583793
vt 0.079835 0.584264
vt 0.079835 0.640862
vt 0.069418 0.642202
vt 0.069418 0.555749
vt 0.079835 0.557090
vt 0.079835 0.665073
vt 0.069418 0.667189
vt 0.069418 0.530763
vt 0.079835 0.532878
vt 0.079835 0.682637
vt 0.069418 0.685315
vt 0.069418 0.512636
vt 0.079835 0.515314
vt 0.018931 0.773701
vt 0.052936 0.704576
vt 0.087787 0.706001
vt 0.025968 0.803584
vt 0.045197 0.703658
vt 0.095050 0.691797
vt 0.044549 0.693382
vt 0.015937 0.808170
vt 0.091879 0.689010
vt 0.032495 0.689010
vt 0.009349 0.808514
vt 0.006753 0.774779
vt 0.004646 0.808868
vt 0.001844 0.775127
vt 0.108514 0.714343
vt 0.143365 0.712918
vt 0.177370 0.782043
vt 0.170333 0.811926
vt 0.101251 0.700139
vt 0.151403 0.701172
vt 0.151104 0.712000
vt 0.180364 0.816512
vt 0.189548 0.783121
vt 0.186952 0.816856
vt 0.194457 0.783469
vt 0.191655 0.817210
vt 0.312487 0.508941
vt 0.312487 0.001992
vt 0.321753 0.001992
vt 0.321753 0.508941
vt 0.301507 0.507420
vt 0.301507 0.003973
vt 0.339067 0.001992
vt 0.339067 0.001992
vt 0.339067 0.001992
vt 0.339067 0.508941
vt 0.339067 0.508941
vt 0.339067 0.508941
vt 0.339067 0.508941
vt 0.328569 0.508941
vt 0.328569 0.001992
vt 0.339067 0.001992
vt 0.634859 0.998008
vt 0.634859 0.512636
vt 0.638980 0.512636
vt 0.638980 0.998008
vt 0.629179 0.512636
vt 0.629179 0.998008
vt 0.625059 0.998008
vt 0.625059 0.512636
vt 0.235400 0.520879
vt 0.259611 0.538443
vt 0.277175 0.562654
vt 0.282033 0.578668
vt 0.222649 0.589828
vt 0.101610 0.589828
vt 0.109852 0.562654
vt 0.127416 0.538443
vt 0.151628 0.520879
vt 0.178802 0.512636
vt 0.208226 0.512636
vt 0.222860 0.619252
vt 0.101610 0.619252
vt 0.230742 0.598098
vt 0.230802 0.610976
vt 0.282033 0.630412
vt 0.277175 0.646426
vt 0.259611 0.670638
vt 0.235400 0.688202
vt 0.208226 0.696444
vt 0.178802 0.696444
vt 0.151628 0.688202
vt 0.127416 0.670638
vt 0.109852 0.646426
vt 0.234702 0.590196
vt 0.235051 0.617665
vt 0.285204 0.622503
vt 0.480574 0.592299
vt 0.480574 0.622665
vt 0.472068 0.650708
vt 0.453942 0.675695
vt 0.428955 0.693821
vt 0.400912 0.702327
vt 0.370546 0.702327
vt 0.342502 0.693821
vt 0.317515 0.675695
vt 0.299389 0.650708
vt 0.290883 0.622665
vt 0.290883 0.592299
vt 0.299389 0.564255
vt 0.317515 0.539269
vt 0.342502 0.521142
vt 0.370546 0.512636
vt 0.400912 0.512636
vt 0.428955 0.521142
vt 0.453942 0.539269
vt 0.472068 0.564255
vt 0.249432 0.718485
vt 0.226056 0.718485
vt 0.226056 0.711898
vt 0.249432 0.711898
vt 0.249591 0.728516
vt 0.225897 0.728516
vt 0.222188 0.707194
vt 0.253361 0.707194
vt 0.252465 0.790335
vt 0.242940 0.797812
vt 0.232566 0.797812
vt 0.223041 0.790335
vt 0.200477 0.700139
vt 0.275163 0.700139
vt 0.378634 0.755129
vt 0.378634 0.731753
vt 0.383543 0.727824
vt 0.383543 0.758997
vt 0.367029 0.743441
vt 0.390906 0.706022
vt 0.390906 0.780708
vt 0.366455 0.752502
vt 0.366455 0.734379
vt 0.644659 0.998008
vt 0.644659 0.512636
vt 0.923840 0.512636
vt 0.923840 0.998008
vt 0.295110 0.003973
vt 0.277536 0.015158
vt 0.001844 0.001992
vt 0.001844 0.001992
vt 0.295110 0.507420
vt 0.277536 0.496236
vt 0.277783 0.293123
vt 0.277783 0.218437
vt 0.243770 0.028664
vt 0.001844 0.001992
vt 0.001844 0.508941
vt 0.001844 0.508941
vt 0.243770 0.482729
vt 0.244033 0.293123
vt 0.244033 0.218437
vt 0.001844 0.508941
vt 0.344806 0.508941
vt 0.344806 0.001992
vt 0.357476 0.012781
vt 0.357476 0.498153
vt 0.646994 0.001992
vt 0.636657 0.012781
vt 0.646994 0.508941
vt 0.636657 0.498153
vt 0.292079 0.763961
vt 0.281662 0.764432
vt 0.281662 0.734066
vt 0.292079 0.734537
vt 0.281662 0.792475
vt 0.292079 0.791135
vt 0.281662 0.706022
vt 0.292079 0.707363
vt 0.325307 0.764432
vt 0.312104 0.767212
vt 0.306731 0.754436
vt 0.306731 0.744062
vt 0.312104 0.731286
vt 0.325307 0.734066
vt 0.314891 0.791135
vt 0.314891 0.775121
vt 0.325307 0.792475
vt 0.297899 0.763961
vt 0.297899 0.734537
vt 0.314891 0.723377
vt 0.314891 0.707363
vt 0.325307 0.706022
vt 0.345293 0.784847
vt 0.342177 0.715284
vt 0.348427 0.715284
vt 0.333874 0.716850
vt 0.336232 0.786893
vt 0.351744 0.706436
vt 0.338867 0.706433
vt 0.356730 0.716850
vt 0.354355 0.786893
vt 0.332177 0.706022
vt 0.359646 0.706574
vt 0.418837 0.706554
vt 0.418837 0.740295
vt 0.397125 0.739773
vt 0.397125 0.706022
vt 0.425991 0.740295
vt 0.425991 0.706554
vt 0.447793 0.706022
vt 0.447793 0.739773
vn 0.000000 0.074514 0.997220
vn 0.000000 0.074514 0.997220
vn 0.000000 0.074514 0.997220
vn 0.000000 0.074514 0.997220
vn 0.999087 -0.003375 -0.042586
vn 0.919627 -0.023349 -0.392098
vn 0.768506 -0.033117 -0.638985
vn 0.997844 -0.005185 -0.065423
vn 0.071035 -0.249687 -0.965718
vn 0.315505 -0.036539 -0.948220
vn 0.004893 -0.017122 -0.999841
vn 0.003741 -0.011667 -0.999925
vn -0.004902 -0.017115 -0.999842
vn -0.003371 -0.011621 -0.999927
vn 0.000013 -0.013717 -0.999906
vn -0.000013 -0.013715 -0.999906
vn 0.000000 -0.943425 -0.331587
vn 0.000000 -0.944485 -0.328553
vn 0.000000 -0.999239 -0.038999
vn 0.000000 -0.999239 -0.038999
vn 1.000000 0.000000 -0.000000
vn 1.000000 0.000000 -0.000000
vn -0.999465 -0.002585 -0.032615
vn -1.000000 0.000000 -0.000000
vn -1.000000 0.000000 -0.000000
vn -0.998728 -0.003984 -0.050275
vn 0.000000 0.989082 -0.147366
vn 0.000000 0.989082 -0.147366
vn 0.000000 0.989082 -0.147366
vn 0.000000 0.989082 -0.147367
vn 0.000000 0.989082 -0.147366
vn 0.000000 0.989082 -0.147366
vn 0.000000 0.989082 -0.147366
vn 0.000000 0.989082 -0.147366
vn 0.000000 0.989082 -0.147366
vn 0.000000 0.989082 -0.147366
vn -0.932494 -0.020596 -0.360597
vn -0.779835 -0.031368 -0.625199
vn -0.071101 -0.249705 -0.965708
vn -0.313369 -0.035931 -0.948952
vn 0.000000 -0.653194 -0.757190
vn 0.000000 -0.655701 -0.755021
vn -0.000120 -0.293668 -0.955908
vn 0.000120 -0.293626 -0.955920
vn -0.000020 0.074029 0.997256
vn 0.000020 0.074029 0.997256
vn 0.000024 0.074067 0.997253
vn -0.000024 0.074067 0.997253
vn 0.000027 0.074095 0.997251
vn 0.000026 0.074084 0.997252
vn -0.000027 0.074095 0.997251
vn -0.000026 0.074084 0.997252
vn 0.000000 0.997270 -0.073844
vn 0.000000 0.997270 -0.073844
vn 0.000000 0.997270 -0.073844
vn 0.000000 0.997270 -0.073844
vn -1.000000 -0.000000 0.000000
vn -1.000000 -0.000000 0.000000
vn -1.000000 -0.000000 0.000000
vn -1.000000 -0.000000 0.000000
vn 0.000000 -0.997270 0.073836
vn 0.000000 -0.997270 0.073836
vn 0.000000 -0.997270 0.073836
vn 0.000000 -0.997270 0.073836
vn 1.000000 -0.000000 0.000000
vn 1.000000 -0.000000 0.000000
vn 1.000000 -0.000000 0.000000
vn 1.000000 -0.000000 0.000000
vn -0.138279 0.274959 0.951460
vn -0.138841 0.274961 0.951378
vn 0.138841 0.274961 0.951378
vn 0.138279 0.274959 0.951460
vn -0.088594 0.196820 -0.976429
vn -0.107548 0.218347 -0.969927
vn -0.002790 0.484821 -0.874609
vn 0.002790 0.484821 -0.874609
vn 0.107548 0.218347 -0.969927
vn 0.088594 0.196820 -0.976429
vn 0.951460 0.274959 0.138279
vn 0.951378 0.274961 0.138841
vn 0.951378 0.274961 -0.138841
vn 0.951460 0.274959 -0.138279
vn -0.951460 0.274959 -0.138279
vn -0.951378 0.274961 -0.138841
vn -0.951378 0.274961 0.138841
vn -0.951460 0.274959 0.138279
vn -0.858803 0.276315 0.431401
vn -0.858882 0.276315 0.431245
vn -0.679624 0.276084 0.679624
vn -0.679624 0.276084 0.679624
vn -0.431401 0.276315 0.858803
vn -0.431245 0.276315 0.858882
vn 0.431401 0.276315 0.858803
vn 0.431245 0.276315 0.858882
vn 0.679624 0.276084 0.679624
vn 0.679624 0.276084 0.679624
vn 0.858803 0.276315 0.431401
vn 0.858882 0.276315 0.431245
vn -0.858882 0.276315 -0.431245
vn -0.858803 0.276315 -0.431401
vn -0.679624 0.276084 -0.679624
vn -0.679624 0.276084 -0.679624
vn -0.444004 0.262220 -0.856797
vn -0.444145 0.262235 -0.856719
vn -0.305869 0.244941 -0.920026
vn 0.444004 0.262220 -0.856797
vn 0.679624 0.276084 -0.679624
vn 0.679624 0.276084 -0.679624
vn 0.444145 0.262235 -0.856719
vn 0.858882 0.276315 -0.431245
vn 0.858803 0.276315 -0.431401
vn 0.000000 1.000000 0.000000
vn 0.000000 1.000000 0.000000
vn 0.000000 1.000000 0.000000
vn 0.022646 0.999740 0.002588
vn 0.002390 0.999994 0.002617
vn 0.000000 1.000000 0.000000
vn 0.000000 1.000000 0.000000
vn 0.000000 1.000000 0.000000
vn 0.000000 1.000000 0.000000
vn 0.000000 1.000000 0.000000
vn 0.000000 1.000000 0.000000
vn 0.000000 -1.000000 0.000000
vn 0.000000 -1.000000 0.000000
vn 0.000000 -1.000000 0.000000
vn 0.000000 -1.000000 0.000000
vn 0.000000 -1.000000 0.000000
vn 0.000000 -1.000000 0.000000
vn 0.000000 -1.000000 0.000000
vn 0.000000 -1.000000 0.000000
vn 0.000000 -1.000000 0.000000
vn 0.000000 -1.000000 0.000000
vn 0.000000 -1.000000 0.000000
vn 0.000000 -1.000000 0.000000
vn 0.000000 -1.000000 0.000000
vn 0.000000 -1.000000 0.000000
vn 0.000000 -1.000000 0.000000
vn 0.000000 -1.000000 0.000000
vn 0.000000 -1.000000 0.000000
vn 0.000000 -1.000000 0.000000
vn 0.000000 -1.000000 0.000000
vn 0.000000 -1.000000 0.000000
vn 0.000000 1.000000 -0.000000
vn -0.002379 0.999994 0.002537
vn -0.020515 0.999786 0.002665
vn 0.000000 1.000000 -0.000000
vn 0.000000 1.000000 -0.000000
vn 0.000000 1.000000 -0.000000
vn 0.000000 1.000000 -0.000000
vn 0.000000 1.000000 -0.000000
vn 0.000000 1.000000 -0.000000
vn 0.000000 1.000000 -0.000000
vn 0.000000 1.000000 -0.000000
vn 0.982631 -0.038616 0.181506
vn 0.995927 0.023511 0.087043
vn 0.997146 0.040042 0.064003
vn 0.997510 -0.002391 0.070491
vn -0.997336 0.025692 0.068267
vn -0.995870 0.013454 0.089787
vn -0.982649 -0.038745 0.181386
vn -0.997516 -0.002519 0.070396
vn 0.000000 0.958302 -0.285759
vn 0.000000 0.958302 -0.285759
vn 0.000000 0.998645 -0.052048
vn 0.000000 0.998645 -0.052048
vn 0.000000 -0.997497 0.070704
vn 0.000000 -0.997497 0.070704
vn 0.000000 -0.997497 0.070703
vn 0.000000 -0.997497 0.070703
vn 0.938583 -0.044026 -0.342234
vn 0.939142 -0.043982 -0.340701
vn 0.424393 -0.077964 -0.902115
vn 0.423214 -0.078024 -0.902664
vn 0.000000 0.997173 -0.075135
vn 0.000000 0.997173 -0.075135
vn 0.000000 0.997174 -0.075133
vn 0.000000 0.997174 -0.075133
vn -0.940405 -0.043727 -0.337234
vn -0.939859 -0.043769 -0.338748
vn -0.425252 -0.077951 -0.901712
vn -0.426448 -0.077891 -0.901152
vn 0.002390 0.542735 -0.839901
vn -0.002390 0.542735 -0.839901
vn 0.000000 0.575377 -0.817889
vn 0.000000 0.575374 -0.817891
vn 0.305869 0.244941 -0.920026
vn 0.994748 -0.047933 -0.090439
vn 0.051283 -0.976106 0.211157
vn -0.000000 -0.980811 0.194959
vn 0.222375 -0.974207 0.038336
vn -0.000018 -0.327173 0.944964
vn -0.199842 -0.240471 0.949862
vn 0.196195 -0.236196 0.951693
vn 0.887362 0.457489 0.057381
vn 0.770315 0.619484 0.151178
vn 0.549698 -0.208133 0.809020
vn 0.097746 0.723886 0.682960
vn -0.119945 0.724125 0.679159
vn -0.873531 0.481936 0.068417
vn -0.744505 0.650685 0.149402
vn -0.554768 -0.218991 0.802668
vn -0.222375 -0.974207 0.038334
vn -0.051283 -0.976106 0.211156
vn -0.994748 -0.047933 -0.090438
vn 0.000000 -0.997497 0.070703
vn 0.000000 -0.997497 0.070703
vn -0.315861 -0.082785 -0.945187
vn -0.315861 -0.082785 -0.945187
vn 0.000000 0.997174 -0.075132
vn 0.000000 0.997174 -0.075132
vn 0.314679 -0.082820 -0.945578
vn 0.314679 -0.082820 -0.945578
s off
g pCube3
usemtl initialShadingGroup
f 29/173/1 30/174/2 31/175/3 32/176/4
s 1
f 12/1/5 11/2/6 17/3/7 20/4/8
f 11/177/6 10/178/9 18/179/10 17/180/7
f 10/178/9 9/185/11 19/186/12 18/179/10
f 5/189/13 16/192/14 19/186/12 9/185/11 23/191/15 21/190/16
f 8/79/17 12/80/18 2/81/19 1/82/20
f 2/5/21 12/1/5 20/4/8 4/6/22
f 8/7/23 1/8/24 3/9/25 15/10/26
s off
f 17/85/27 18/86/28 19/87/29 16/88/30 13/89/31 14/90/32 15/91/33 3/92/34 4/93/35 20/94/36
s 1
f 7/11/37 8/7/23 15/10/26 14/12/38
f 5/189/13 6/182/39 13/188/40 16/192/14
f 6/182/39 7/181/37 14/187/38 13/188/40
f 8/79/17 7/83/41 11/84/42 12/80/18
f 7/181/41 6/182/39 22/183/43 24/184/44 10/178/9 11/177/42
f 6/182/39 5/189/13 21/190/16 22/183/43
f 24/184/44 23/191/15 9/185/11 10/178/9
s 4
f 1/193/45 2/194/46 26/195/47 25/196/48
f 2/194/46 4/197/49 27/198/50 26/195/47
f 4/197/49 3/199/51 28/200/52 27/198/50
f 3/199/51 1/193/45 25/196/48 28/200/52
s off
f 25/95/53 26/96/54 30/97/55 29/98/56
f 26/13/57 27/14/58 31/15/59 30/16/60
f 27/99/61 28/100/62 32/101/63 31/102/64
f 28/17/65 25/18/66 29/19/67 32/20/68
s 5
f 42/201/69 34/202/70 47/203/71 49/204/72
f 61/209/73 87/210/74 86/211/75 78/212/76 76/213/77 67/214/78
f 48/21/79 43/22/80 66/23/81 65/24/82
f 56/37/83 57/38/84 33/39/85 38/40/86
f 33/39/85 37/43/87 39/44/88 38/40/86
f 37/43/87 36/47/89 40/48/90 39/44/88
f 36/47/89 35/51/91 41/52/92 40/48/90
f 35/205/91 34/202/70 42/201/69 41/206/92
f 47/203/71 46/207/93 50/208/94 49/204/72
f 46/33/93 45/29/95 51/30/96 50/34/94
f 45/29/95 44/25/97 52/26/98 51/30/96
f 44/25/97 43/22/80 48/21/79 52/26/98
f 56/37/83 55/41/99 58/42/100 57/38/84
f 55/41/99 54/45/101 59/46/102 58/42/100
f 54/45/101 53/49/103 60/50/104 59/46/102
f 53/215/103 88/216/105 87/210/74 61/209/73 60/217/104
f 64/35/106 63/31/107 69/32/108 68/36/109
f 63/31/107 62/27/110 70/28/111 69/32/108
f 62/27/110 65/24/82 66/23/81 70/28/111
s 10
f 62/103/112 63/104/113 64/105/114 77/106/115 83/107/116 49/108/117 50/109/118 51/110/119 52/111/120 48/112/121 65/113/122
s off
f 66/130/123 43/131/124 44/132/125 45/133/126 46/134/127 47/135/128 34/136/129 35/137/130 36/138/131 37/139/132 33/140/133 57/141/134 58/142/135 59/143/136 60/144/137 61/145/138 67/146/139 68/147/140 69/148/141 70/149/142
s 10
f 42/115/143 93/114/144 88/118/145 53/119/146 54/120/147 55/121/148 56/122/149 38/123/150 39/124/151 40/125/152 41/126/153
f 49/108/117 83/107/116 93/114/144 42/115/143
f 95/53/154 79/54/155 75/55/156 98/56/157
f 85/67/158 91/68/159 97/69/160 101/70/161
s 5
f 99/150/162 100/151/163 74/152/164 73/153/165
s 14
f 72/164/166 71/165/167 102/166/168 103/167/169
s 10
f 71/64/170 73/63/171 105/65/172 102/66/173
s 16
f 73/153/174 74/152/175 104/156/176 105/157/177
s 10
f 74/76/178 72/75/179 103/77/180 104/78/181
s 5
f 75/158/182 78/159/76 86/160/75 85/161/183 101/155/184 98/154/185
f 76/213/77 77/220/186 64/221/106 68/222/109 67/214/78
s 10
f 95/53/154 99/60/187 73/63/171 71/64/170
s 18
f 71/165/188 96/168/189 95/172/190
s 10
f 96/223/191 89/224/192 81/225/193
f 77/61/115 76/58/194 84/59/195 83/62/116
f 76/58/194 75/55/156 79/54/155 84/59/195
f 81/225/193 80/230/196 95/231/154 96/223/191
f 80/57/196 79/54/155 95/53/154
f 83/107/116 82/116/197 94/117/198 93/114/144
f 82/228/197 81/225/193 89/224/192 94/229/198
f 85/67/158 87/71/199 92/72/200 91/68/159
f 87/129/199 88/118/145 93/114/144 92/128/200
f 91/68/159 90/73/201 97/69/160
f 90/226/201 89/224/192 96/223/191 97/227/160
s 5
f 75/219/182 76/213/77 78/212/76
s 10
f 84/59/195 79/54/155 80/57/196
f 80/230/196 81/225/193 82/228/197 84/233/195
f 82/116/197 83/107/116 84/127/195
s 5
f 86/211/75 87/210/74 85/218/183
s 10
f 94/229/198 89/224/192 90/226/201 92/232/200
f 90/73/201 91/68/159 92/72/200
f 92/128/200 93/114/144 94/117/198
s 18
f 97/171/202 96/168/189 72/164/203
f 72/164/203 96/168/189 71/165/188
s 10
f 100/74/204 97/69/160 72/75/179 74/76/178
s 5
f 99/150/162 98/154/185 101/155/184 100/151/163
s 10
f 98/56/157 99/60/187 95/53/154
f 97/69/160 100/74/204 101/70/161
s 14
f 103/167/169 102/166/168 24/169/205 22/170/206
s 10
f 104/234/181 103/235/180 22/236/207 21/237/208
s 16
f 105/157/177 104/156/176 21/162/209 23/163/210
s 10
f 102/238/173 105/239/172 23/240/211 24/241/212
